<?xml version="1.0" encoding="utf-8"?>
<!-- Generator: Adobe Illustrator 23.0.4, SVG Export Plug-In . SVG Version: 6.00 Build 0)  -->
<svg version="1.1" id="Capa_1" xmlns="http://www.w3.org/2000/svg" xmlns:xlink="http://www.w3.org/1999/xlink" x="0px" y="0px"
	 viewBox="0 0 540.5 532.4" style="enable-background:new 0 0 540.5 532.4;" xml:space="preserve">
<path d="M456.1,110.2H446v0c0-44.1-35.9-80-80-80H94c-44.1,0-80,35.9-80,80v159c0,44.1,35.9,80,80,80v21.4
	c0,38.4,31.3,69.6,69.8,69.6H241c11,0,20-9,20-20s-8.9-20-20-20h-77.2c-16.5,0-29.8-13.3-29.8-29.6V199.5l139.2,86.1
	c11.4,7,24.1,10.5,36.8,10.5s25.5-3.5,36.8-10.5L486,199.5v99.8c0,11,8.9,20,20,20c11.1,0,20-9,20-20V179.8
	C526,141.5,494.6,110.2,456.1,110.2z M54,269.2v-159c0-22,18-40,40-40h272c22.1,0,40,18,40,40v0H163.8c-38.5,0-69.8,31.2-69.8,69.6
	v129.4C71.9,309.2,54,291.3,54,269.2z M325.8,251.5c-9.6,5.9-22,5.9-31.6,0l-150.8-93.3c5.3-5,12.5-8,20.4-8h292.3
	c7.9,0,15.1,3,20.4,8L325.8,251.5z M508.5,377.7c23.3,23.4,23.3,61.6,0,85l-44.3,44.6c-3.9,3.9-9.1,5.9-14.2,5.9
	c-5.1,0-10.2-1.9-14.1-5.8c-7.8-7.8-7.9-20.4-0.1-28.3l38.7-38.9H321c-11.1,0-20-9-20-20c0-11,8.9-20,20-20h153.5l-38.7-38.9
	c-7.8-7.8-7.8-20.5,0.1-28.3c7.8-7.8,20.5-7.8,28.3,0.1L508.5,377.7z"/>
</svg>
