<svg xmlns="http://www.w3.org/2000/svg" width="10" height="12" viewBox="0 0 10 12"><g><g><path fill="#9ca7ba" d="M5.146 12h-.292a.493.493 0 0 1-.413-.218c-.535-.813-1.204-1.518-1.851-2.2-.66-.694-1.285-1.35-1.765-2.103C.271 6.61.001 5.734 0 4.8a4.683 4.683 0 0 1 1.466-3.395A5.072 5.072 0 0 1 5 0c1.335 0 2.59.5 3.534 1.405A4.682 4.682 0 0 1 10 4.8c0 1.05-.33 2-1.034 2.989a.5.5 0 0 1-.678.122.458.458 0 0 1-.127-.652c.588-.825.862-1.607.863-2.459C9.022 2.67 7.217.938 5 .938S.978 2.67.976 4.8C.977 6.496 2.058 7.634 3.31 8.95c.576.606 1.168 1.23 1.69 1.947.522-.717 1.114-1.34 1.69-1.946l.075-.08a.502.502 0 0 1 .69-.03.457.457 0 0 1 .03.663l-.075.079c-.647.682-1.317 1.386-1.851 2.199a.493.493 0 0 1-.413.218zM5 7.664a.478.478 0 0 1-.488-.469V4.664c0-.259.218-.469.488-.469s.488.21.488.469v2.531c0 .26-.219.469-.488.469zm.488-4.617A.479.479 0 0 1 5 3.516a.479.479 0 0 1-.488-.47c0-.258.218-.468.488-.468s.488.21.488.469z"/></g></g></svg>