<svg id="bb4ed739-b48f-44e7-b5f6-0c6ca5ebae17" data-name="Layer 1" 
    xmlns="http://www.w3.org/2000/svg" viewBox="0 0 163.95 24" fill="#6CC69E">
    <title>klickpages</title>
    <path d="M51.85,1.6a1.6,1.6,0,0,1,3.2,0V18.2a1.6,1.6,0,0,1-3.2,0Z" transform="translate(0)"></path>
    <path d="M58.75,7A1.6,1.6,0,0,1,62,7V18.2a1.6,1.6,0,0,1-3.2,0Zm-.3-5.3a1.81,1.81,0,0,1,3.6,0v.2a1.81,1.81,0,0,1-3.6,0Z" transform="translate(0)"></path>
    <path d="M64.45,12.7h0a7.22,7.22,0,0,1,7.2-7.4,6.81,6.81,0,0,1,4.9,1.8,1.63,1.63,0,0,1,.5,1.1,1.54,1.54,0,0,1-1.5,1.5,1.9,1.9,0,0,1-.9-.3,4.31,4.31,0,0,0-3-1.2,4.2,4.2,0,0,0-4,4.5v.1a4.24,4.24,0,0,0,4.2,4.5A4.39,4.39,0,0,0,75,16a1.22,1.22,0,0,1,.9-.3,1.37,1.37,0,0,1,1.4,1.4,1.53,1.53,0,0,1-.4,1,6.67,6.67,0,0,1-5.1,2,7.36,7.36,0,0,1-7.3-7.4" transform="translate(0)"></path>
    <path d="M92,9.6h0" transform="translate(0)"></path>
    <path d="M41.05,1.6A1.5,1.5,0,0,0,39.55,0a1.42,1.42,0,0,0-1.4,1.6V18.2a1.48,1.48,0,0,0,1.4,1.6,1.5,1.5,0,0,0,1.5-1.6" transform="translate(0)"></path>
    <path d="M49.05,17.2l-4.2-5.6,3.7-3.4a1.91,1.91,0,0,0,.7-1.4,1.45,1.45,0,0,0-1.4-1.5c-.6,0-.9.3-1.4.7L42,10.6c-1.1,1.1.7,3.1.7,3.1l4,5.4a1.62,1.62,0,0,0,1.4.7,1.47,1.47,0,0,0,1.5-1.5,2.7,2.7,0,0,0-.5-1.1" transform="translate(0)"></path>
    <path d="M81.25,1.6A1.5,1.5,0,0,0,79.75,0a1.42,1.42,0,0,0-1.4,1.6V18.2a1.48,1.48,0,0,0,1.4,1.6,1.5,1.5,0,0,0,1.5-1.6Z" transform="translate(0)"></path>
    <path d="M89.35,17.2l-4.2-5.6,3.7-3.4a1.91,1.91,0,0,0,.7-1.4,1.45,1.45,0,0,0-1.4-1.5c-.6,0-.9.3-1.4.7l-4.7,4.8c-.9,1.3.8,3,.8,3l4,5.3a1.62,1.62,0,0,0,1.4.7,1.47,1.47,0,0,0,1.5-1.5,1.67,1.67,0,0,0-.4-1.1" transform="translate(0)"></path>
    <path d="M92.75,6.8a1,1,0,1,1,2,0V8.7A6.22,6.22,0,0,1,100,5.6c3.2,0,6.5,2.6,6.5,7.1v.1c0,4.5-3.2,7.1-6.5,7.1a6.29,6.29,0,0,1-5.2-2.9v6a.94.94,0,0,1-1,1,1,1,0,0,1-1-1Zm11.6,6h0c0-3.3-2.2-5.4-4.8-5.4a5.14,5.14,0,0,0-4.9,5.3v.1a5.07,5.07,0,0,0,4.9,5.3c2.7-.1,4.8-2,4.8-5.3" transform="translate(0)"></path>
    <path d="M108.25,15.6h0c0-2.9,2.4-4.5,5.8-4.5a12.87,12.87,0,0,1,4.2.6v-.5c0-2.5-1.5-3.7-4-3.7a7.54,7.54,0,0,0-3.5.8.6.6,0,0,1-.4.1.9.9,0,0,1-.9-.9,1.35,1.35,0,0,1,.5-.9,10.17,10.17,0,0,1,4.4-.9,6,6,0,0,1,4.4,1.5,5.55,5.55,0,0,1,1.4,4v7.5a1,1,0,0,1-2,0V17.5a6,6,0,0,1-4.9,2.4c-2.5,0-5-1.5-5-4.3m10-1.1V13.2a13.5,13.5,0,0,0-4-.6c-2.5,0-4,1.1-4,2.8v.1c0,1.7,1.6,2.7,3.4,2.7,2.5.1,4.6-1.5,4.6-3.7" transform="translate(0)"></path>
    <path d="M123.85,22.3a1,1,0,0,1-.5-.8.9.9,0,0,1,.9-.9c.2,0,.3.1.4.1a8.05,8.05,0,0,0,4.8,1.5c3,0,4.9-1.7,4.9-4.9V15.7a6.36,6.36,0,0,1-11.7-3.5V12a6.41,6.41,0,0,1,11.7-3.7V6.8a.94.94,0,0,1,1-1,1,1,0,0,1,1,1V17.2a6.94,6.94,0,0,1-1.7,4.9,7.15,7.15,0,0,1-5.2,1.8,10.75,10.75,0,0,1-5.6-1.6m10.6-10.2h0a4.76,4.76,0,0,0-5-4.7,4.49,4.49,0,0,0-4.7,4.6h0a4.63,4.63,0,0,0,4.7,4.7,4.81,4.81,0,0,0,5-4.6" transform="translate(0)"></path>
    <path d="M146,19.9a6.82,6.82,0,0,1-6.8-7.1v-.1c0-4,2.7-7.1,6.5-7.1,4,0,6.3,3.3,6.3,7a.92.92,0,0,1-.9,1h-9.8a4.74,4.74,0,0,0,4.8,4.6,5.58,5.58,0,0,0,3.9-1.6,1.07,1.07,0,0,1,.6-.2.9.9,0,0,1,.9.9,1.08,1.08,0,0,1-.3.7,7.84,7.84,0,0,1-5.2,1.9m4-7.9c-.2-2.5-1.6-4.7-4.3-4.7-2.4,0-4.1,2-4.4,4.7Z" transform="translate(0)"></path>
    <path d="M154,18.1a.84.84,0,0,1-.4-.7.9.9,0,0,1,.9-.9.76.76,0,0,1,.5.2,7.25,7.25,0,0,0,4.3,1.5c1.6,0,2.8-.9,2.8-2.2v-.1c0-1.4-1.6-1.9-3.4-2.4-2.1-.6-4.5-1.4-4.5-3.9V9.5c0-2.4,1.9-3.9,4.6-3.9a9.6,9.6,0,0,1,4.3,1.2,1,1,0,0,1,.5.8.9.9,0,0,1-.9.9c-.2,0-.3-.1-.4-.1a7.13,7.13,0,0,0-3.5-1.1c-1.6,0-2.6.9-2.6,2v.1c0,1.3,1.7,1.8,3.5,2.4,2.1.6,4.3,1.5,4.3,3.9v.1c0,2.6-2.1,4.1-4.8,4.1a8.84,8.84,0,0,1-5.2-1.8" transform="translate(0)"></path>
    <path d="M21.63,19.35l-2.87-3.67-3.41,3.51a1,1,0,0,1-1.45-.08l-2.84-3.64-3.7,3.65A1,1,0,0,1,5.92,19L.21,11.77A1,1,0,0,1,.27,10.5l5.8-5.93a1,1,0,0,1,1.45.08l2.76,3.58L14,4.55a1,1,0,0,1,1.43.1L18.25,8.2l3.88-3.66a1,1,0,0,1,1.42.12L29,11.79A1,1,0,0,1,29,13l-5.87,6.38A1,1,0,0,1,21.63,19.35Zm-2.7-6.72,3.52,4.53,4.45-4.84L22.67,6.78,18,11.16,14.61,6.79l-4.53,4.45L6.67,6.82,2.34,11.25l4.44,5.63,4.48-4.41,3.49,4.47Z" transform="translate(0)"></path>
</svg>