<svg version="1.1" id="Layer_1" 
    xmlns="http://www.w3.org/2000/svg" 
    xmlns:xlink="http://www.w3.org/1999/xlink" x="0px" y="0px" width="151.7px" height="24px" viewBox="0 0 151.7 24" xml:space="preserve" fill="#7863cc">
    <g style="display:none;">
        <path style="display:inline;" d="M51.8,1.6c0-0.9,0.7-1.6,1.6-1.6S55,0.7,55,1.6v16.6c0,0.9-0.7,1.6-1.6,1.6
		c-0.9,0-1.6-0.7-1.6-1.6V1.6z"></path>
        <path style="display:inline;" d="M58.7,7c0-0.9,0.7-1.6,1.6-1.6c0.9,0,1.6,0.7,1.6,1.6v11.2c0,0.9-0.7,1.6-1.6,1.6
		c-0.9,0-1.6-0.7-1.6-1.6C58.7,18.2,58.7,7,58.7,7z M58.4,1.7c0-1,0.8-1.6,1.8-1.6S62,0.7,62,1.7v0.2c0,1-0.8,1.6-1.8,1.6
		s-1.8-0.6-1.8-1.6V1.7z"></path>
        <path style="display:inline;" d="M64.4,12.7L64.4,12.7c0-4.1,3.1-7.4,7.2-7.4c2.2,0,3.7,0.7,4.9,1.8C76.7,7.3,77,7.7,77,8.2
		c0,0.8-0.7,1.5-1.5,1.5c-0.4,0-0.7-0.2-0.9-0.3c-0.8-0.7-1.7-1.2-3-1.2c-2.3,0-4,2-4,4.5v0.1c0,2.5,1.7,4.5,4.2,4.5
		c1.3,0,2.2-0.5,3.1-1.3c0.2-0.2,0.5-0.3,0.9-0.3c0.8,0,1.4,0.6,1.4,1.4c0,0.4-0.2,0.8-0.4,1c-1.2,1.2-2.7,2-5.1,2
		C67.5,20,64.4,16.7,64.4,12.7"></path>
        <path style="display:inline;" d="M41,1.6C41,0.7,40.4,0,39.5,0s-1.4,0.7-1.4,1.6v16.6c0,0.9,0.6,1.6,1.4,1.6c0.9,0,1.5-0.7,1.5-1.6
		">        </path>
        <path style="display:inline;" d="M49,17.2l-4.2-5.6l3.7-3.4c0.4-0.4,0.7-0.8,0.7-1.4c0-0.8-0.6-1.5-1.4-1.5c-0.6,0-0.9,0.3-1.4,0.7
		l-4.5,4.6c-1.1,1.1,0.7,3.1,0.7,3.1l4,5.4c0.4,0.5,0.8,0.7,1.4,0.7c0.8,0,1.5-0.6,1.5-1.5C49.4,17.9,49.3,17.6,49,17.2"></path>
        <path style="display:inline;" d="M81.2,1.6c0-0.9-0.6-1.6-1.5-1.6s-1.4,0.7-1.4,1.6v16.6c0,0.9,0.6,1.6,1.4,1.6
		c0.9,0,1.5-0.7,1.5-1.6V1.6z"></path>
        <path style="display:inline;" d="M89.3,17.2l-4.2-5.6l3.7-3.4c0.4-0.4,0.7-0.8,0.7-1.4c0-0.8-0.6-1.5-1.4-1.5
		c-0.6,0-0.9,0.3-1.4,0.7L82,10.8c-0.9,1.3,0.8,3,0.8,3l4,5.3c0.4,0.5,0.8,0.7,1.4,0.7c0.8,0,1.5-0.6,1.5-1.5
		C89.7,17.9,89.6,17.6,89.3,17.2"></path>
        <path style="display:inline;" d="M92.7,6.8c0-0.6,0.4-1,1-1s1,0.4,1,1v1.9c1.1-1.6,2.7-3.1,5.2-3.1c3.2,0,6.5,2.6,6.5,7.1v0.1
		c0,4.5-3.2,7.1-6.5,7.1c-2.5,0-4.1-1.4-5.2-2.9v6c0,0.6-0.4,1-1,1s-1-0.5-1-1V6.8z M104.3,12.8L104.3,12.8c0-3.3-2.2-5.4-4.8-5.4
		c-2.5,0-4.9,2.2-4.9,5.3v0.1c0,3.2,2.4,5.3,4.9,5.3C102.2,18,104.3,16.1,104.3,12.8"></path>
        <path style="display:inline;" d="M108.2,15.6L108.2,15.6c0-2.9,2.4-4.5,5.8-4.5c1.7,0,3,0.2,4.2,0.6v-0.5c0-2.5-1.5-3.7-4-3.7
		c-1.4,0-2.5,0.3-3.5,0.8c-0.1,0.1-0.3,0.1-0.4,0.1c-0.5,0-0.9-0.4-0.9-0.9c0-0.4,0.3-0.7,0.5-0.9c1.3-0.6,2.7-0.9,4.4-0.9
		c1.9,0,3.4,0.5,4.4,1.5c0.9,0.9,1.4,2.3,1.4,4v7.5c0,0.6-0.4,1-1,1s-1-0.4-1-1v-1.2c-0.9,1.2-2.5,2.4-4.9,2.4
		C110.7,19.9,108.2,18.4,108.2,15.6 M118.2,14.5v-1.3c-1-0.3-2.3-0.6-4-0.6c-2.5,0-4,1.1-4,2.8v0.1c0,1.7,1.6,2.7,3.4,2.7
		C116.1,18.3,118.2,16.7,118.2,14.5"></path>
        <path style="display:inline;" d="M123.8,22.3c-0.3-0.2-0.5-0.5-0.5-0.8c0-0.5,0.4-0.9,0.9-0.9c0.2,0,0.3,0.1,0.4,0.1
		c1.4,1,3,1.5,4.8,1.5c3,0,4.9-1.7,4.9-4.9v-1.6c-1.2,1.6-2.8,2.9-5.3,2.9c-3.2,0-6.4-2.5-6.4-6.4V12c0-4,3.1-6.5,6.4-6.5
		c2.5,0,4.2,1.3,5.3,2.8V6.8c0-0.6,0.4-1,1-1s1,0.5,1,1v10.4c0,2.1-0.6,3.7-1.7,4.9c-1.2,1.2-3,1.8-5.2,1.8
		C127.3,23.9,125.5,23.3,123.8,22.3 M134.4,12.1L134.4,12.1c0-2.9-2.4-4.7-5-4.7c-2.6,0-4.7,1.8-4.7,4.6l0,0c0,2.8,2.2,4.7,4.7,4.7
		C132,16.7,134.4,14.8,134.4,12.1"></path>
        <path style="display:inline;" d="M145.9,19.9c-3.7,0-6.8-2.9-6.8-7.1v-0.1c0-4,2.7-7.1,6.5-7.1c4,0,6.3,3.3,6.3,7
		c0,0.6-0.4,1-0.9,1h-9.8c0.3,3,2.4,4.6,4.8,4.6c1.7,0,2.9-0.7,3.9-1.6c0.2-0.1,0.3-0.2,0.6-0.2c0.5,0,0.9,0.4,0.9,0.9
		c0,0.2-0.1,0.5-0.3,0.7C149.7,19.1,148.2,19.9,145.9,19.9 M149.9,12c-0.2-2.5-1.6-4.7-4.3-4.7c-2.4,0-4.1,2-4.4,4.7H149.9z"></path>
        <g style="display:inline;">
            <path d="M21.6,19.4l-2.9-3.7l-3.4,3.5c-0.4,0.4-1.1,0.4-1.5-0.1l-2.8-3.6l-3.7,3.6
			c-0.4,0.4-1.1,0.4-1.4-0.1l-5.7-7.3c-0.3-0.4-0.3-0.9,0.1-1.3l5.8-5.9c0.4-0.4,1.1-0.4,1.5,0.1l2.8,3.6L14,4.6
			c0.4-0.4,1.1-0.4,1.4,0.1l2.8,3.6l3.9-3.7c0.4-0.4,1.1-0.3,1.4,0.1l5.5,7.1c0.3,0.4,0.3,0.9-0.1,1.2l-5.9,6.4
			C22.7,19.8,22,19.8,21.6,19.4z M18.9,12.6l3.5,4.5l4.4-4.8l-4.2-5.5L18,11.2l-3.4-4.4l-4.5,4.4L6.7,6.8l-4.3,4.4l4.4,5.6l4.5-4.4
			l3.5,4.5L18.9,12.6z"></path>
        </g>
    </g>
    <g>
        <g>
            <g transform="translate(-320 -80)">
                <g>
                    <path d="M342.4,84.3L330,92.8l6.1,3.8c0.3,0.2,0.6,0.2,0.9,0.1c0.3-0.1,0.5-0.3,0.6-0.6L342.4,84.3z M331.1,95l-1.9-1.2
					l-0.8,2.5L331.1,95z M328.4,92.3l8.3-5.8l-10.4,4.9l0.8,4.3l1-3.1C328.2,92.5,328.3,92.4,328.4,92.3L328.4,92.3z M338.6,84.2
					l-16.9,3.4c-0.2,0-0.3,0.2-0.3,0.3c0,0.2,0.1,0.3,0.2,0.4l4,2.1L338.6,84.2z M344.4,82.1c0.1,0.2,0.1,0.4,0,0.5L339,96.6
					c-0.2,0.5-0.5,0.9-0.9,1.2c-0.8,0.5-1.8,0.5-2.6,0l-3.2-2l0.1,0.2l-4.5,2.3c-0.2,0.2-0.5,0.4-0.8,0.4l0,0
					c-0.4,0-0.8-0.3-0.9-0.7l-1.2-6.3l-3.9-2c-0.6-0.3-1.1-1-1-1.7c0.1-0.8,0.6-1.4,1.4-1.6l22.2-4.4c0.1,0,0.2,0,0.3,0h0l0.1,0l0,0
					C344.2,81.9,344.3,82,344.4,82.1L344.4,82.1z M382.6,81.7v0.2c0,1-0.8,1.6-1.9,1.6c-1.1,0-1.9-0.6-1.9-1.6v-0.2
					c0-1,0.8-1.6,1.9-1.6S382.6,80.8,382.6,81.7z M398.3,96.2c0.1,0.2,0.2,0.4,0.2,0.6c0,0.5-0.1,0.8-0.5,1.1c-1.3,1.2-2.9,2-5.4,2
					c-4.4,0-7.6-3.3-7.6-7.3v-0.1c0-4,3.2-7.4,7.7-7.4c2.3,0,3.9,0.7,5.2,1.8c0.3,0.2,0.7,0.8,0.5,1.5c-0.1,0.4-0.3,0.7-0.7,0.9
					c-0.8,0.5-1.5,0.2-1.9-0.1c-0.9-0.7-1.8-1.2-3.2-1.2c-2.5,0-4.3,2-4.3,4.5v0.1c0,2.5,1.8,4.5,4.4,4.5c1.3,0,2.4-0.5,3.3-1.3
					C396.6,95.5,397.5,95.1,398.3,96.2L398.3,96.2z M424.6,96.1c0,1.1-0.4,2-1.3,2.6c-0.9,0.7-2.2,1.1-3.9,1.1
					c-1.8,0-3.4-0.4-4.8-1.1c-0.3-0.2-0.5-0.5-0.5-0.8c0-0.3,0.1-0.6,0.3-0.8c0.2-0.2,0.4-0.3,0.6-0.3c0.2,0,0.5,0.1,0.8,0.2
					c1,0.4,2.2,0.7,3.4,0.7c2,0,3-0.6,3-1.8c0-0.4-0.2-0.7-0.6-0.9c-0.5-0.2-1-0.4-1.5-0.5c-0.6-0.2-1.3-0.3-1.9-0.5
					c-0.7-0.2-1.3-0.4-1.9-0.7c-0.6-0.3-1.1-0.7-1.5-1.1c-0.4-0.5-0.6-1-0.6-1.7c0-0.7,0.1-1.3,0.3-1.8c0.2-0.5,0.5-0.9,1-1.3
					c0.9-0.8,2.2-1.1,3.9-1.1c1.3,0,2.6,0.2,3.9,0.6c0.2,0.1,0.4,0.2,0.6,0.4c0.1,0.2,0.2,0.4,0.2,0.6c0,0.2-0.1,0.4-0.3,0.7
					c-0.2,0.2-0.4,0.3-0.6,0.3c-0.2,0-0.4,0-0.7-0.1c-0.9-0.3-1.8-0.4-2.8-0.4c-1,0-1.8,0.2-2.3,0.5c-0.5,0.3-0.8,0.7-0.8,1.2
					c0,0.5,0.2,0.8,0.6,1.1c0.4,0.2,0.9,0.4,1.5,0.6c0.6,0.2,1.2,0.3,1.9,0.5c0.7,0.2,1.3,0.4,1.9,0.6
					C423.9,93.6,424.6,94.7,424.6,96.1L424.6,96.1z M402.9,81.6v16.6c0,0.8-0.7,1.6-1.6,1.6c-0.9,0-1.5-0.7-1.5-1.6V81.6
					c0-0.9,0.6-1.6,1.5-1.6C402.3,80,402.9,80.7,402.9,81.6z M382.4,87.1v11c0,0.8-0.5,1.5-1.3,1.6c-1.1,0.2-2.1-0.5-2.1-1.6V87
					c0-0.9,0.8-1.7,1.8-1.6C381.7,85.4,382.4,86.2,382.4,87.1L382.4,87.1z M411.5,97.2c0.3,0.4,0.4,0.7,0.4,1.1
					c0,0.9-0.7,1.5-1.6,1.5c-0.7,0-1.1-0.2-1.5-0.7l-4.2-5.3c0,0-1.8-1.7-0.9-3l5-4.8c0.4-0.4,0.9-0.7,1.5-0.7
					c0.9,0,1.5,0.7,1.5,1.5c0,0.5-0.3,0.9-0.8,1.4l-3.9,3.4L411.5,97.2z M437.3,92.1c-0.1-1.2-0.5-2.2-1.4-2.9
					c-0.7-0.6-1.6-0.9-2.6-0.9c-1.6,0-2.7,0.7-3.5,2c-0.3,0.5-0.4,1-0.5,1.7H437.3z M438.1,88.3c1.1,1.2,1.6,2.7,1.6,4.5
					c0,0.3-0.1,0.6-0.3,0.8c-0.2,0.2-0.5,0.3-0.9,0.3h-9c0.1,1.2,0.6,2.1,1.4,2.7c0.8,0.7,1.8,1,3.2,1s2.5-0.2,3.4-0.7
					c0.3-0.2,0.6-0.2,0.8-0.2c0.2,0,0.5,0.1,0.7,0.3c0.2,0.2,0.3,0.4,0.3,0.6c0,0.4-0.2,0.8-0.6,1c-0.4,0.2-0.7,0.4-1,0.5
					c-0.3,0.1-0.6,0.3-1,0.4c-0.8,0.2-1.7,0.3-2.8,0.3c-2.2,0-3.9-0.6-5.1-1.8c-1.2-1.2-1.8-2.8-1.8-5c0-1.9,0.5-3.4,1.5-4.7
					c1.1-1.4,2.7-2.1,4.8-2.1C435.3,86.4,436.9,87,438.1,88.3z M469.3,95.8v-5.3c-1.2-1.3-2.6-1.9-4.2-1.9c-2,0-3.4,0.9-4,2.6
					c-0.2,0.6-0.3,1.2-0.3,2c0,1.5,0.4,2.6,1.2,3.4c0.8,0.8,1.8,1.1,3.1,1.1C466.7,97.7,468.1,97,469.3,95.8L469.3,95.8z
					 M471.7,82.1v16.5c0,0.3-0.1,0.6-0.3,0.8c-0.2,0.2-0.5,0.3-0.9,0.3s-0.6-0.1-0.9-0.3c-0.2-0.2-0.4-0.5-0.3-0.8v-0.7
					c-1.3,1.3-2.8,1.9-4.6,1.9c-1.7,0-3.2-0.6-4.4-1.7c-1.3-1.3-2-2.9-2-5c0-2,0.7-3.7,2-5c1.2-1.2,2.7-1.8,4.4-1.8
					c1.7,0,3.2,0.6,4.6,1.9v-6.2c0-0.3,0.1-0.6,0.3-0.8c0.2-0.2,0.5-0.3,0.9-0.3c0.3,0,0.6,0.1,0.9,0.3
					C471.6,81.5,471.7,81.7,471.7,82.1z M453.8,87.8c0.8,0.9,1.2,2.1,1.2,3.5v7.2c0,0.3-0.1,0.6-0.4,0.8c-0.2,0.2-0.5,0.3-0.9,0.3
					c-0.3,0-0.6-0.1-0.9-0.3c-0.2-0.2-0.4-0.5-0.3-0.8v-7c0-1-0.2-1.7-0.7-2.3c-0.5-0.6-1.2-0.8-2.2-0.8c-1.6,0-3,0.8-4.4,2.4v7.6
					c0,0.3-0.1,0.6-0.4,0.8c-0.2,0.2-0.5,0.3-0.9,0.3c-0.3,0-0.6-0.1-0.9-0.3c-0.2-0.2-0.4-0.5-0.3-0.8V87.7c0-0.3,0.1-0.6,0.3-0.8
					c0.2-0.2,0.5-0.3,0.8-0.3s0.6,0.1,0.9,0.3c0.2,0.2,0.4,0.5,0.4,0.8v1c0.7-0.7,1.3-1.2,1.8-1.5c1-0.6,2-0.8,2.9-0.8
					s1.7,0.1,2.2,0.4C452.9,87,453.4,87.4,453.8,87.8L453.8,87.8z M368.8,97.2c0.3,0.4,0.4,0.7,0.4,1.1c0,0.9-0.7,1.5-1.6,1.5
					c-0.7,0-1.1-0.2-1.5-0.7l-4.2-5.4c0,0-1.9-1.9-0.7-3.1l4.8-4.5c0.4-0.4,0.9-0.7,1.5-0.7c0.9,0,1.5,0.7,1.5,1.5
					c0,0.5-0.3,0.9-0.8,1.4l-3.9,3.4L368.8,97.2z M360.3,81.6v16.5c0,0.9-0.6,1.6-1.6,1.6c-0.9,0-1.5-0.7-1.5-1.6V81.6
					c0-0.9,0.6-1.6,1.5-1.6C359.7,80,360.3,80.7,360.3,81.6z M375.2,81.6v16.5c0,0.8-0.5,1.5-1.3,1.6c-1.1,0.2-2.1-0.5-2.1-1.6V81.6
					c0-0.9,0.7-1.6,1.7-1.6C374.4,80,375.2,80.7,375.2,81.6z"></path>
                </g>
            </g>
        </g>
    </g>
</svg>