<svg xmlns="http://www.w3.org/2000/svg" width="18" height="22" viewBox="0 0 18 22"><g><g><path fill="#47b365" d="M14.557 5.5c0 .476-.38.86-.85.86H7.685a.854.854 0 0 1-.849-.86c0-.474.38-.859.849-.859h6.024c.469 0 .849.385.849.86zm0 3.439c0 .475-.38.86-.85.86H7.685a.854.854 0 0 1-.849-.86c0-.475.38-.86.849-.86h6.024c.469 0 .849.385.849.86zm-3.434 3.438c0 .475-.38.86-.85.86h-2.59a.854.854 0 0 1-.848-.86c0-.475.38-.86.849-.86h2.59c.468 0 .849.385.849.86zm5.179-1.547V3.438a1.71 1.71 0 0 0-1.698-1.719H6.792a1.71 1.71 0 0 0-1.698 1.719v11.689c0 .459.177.89.498 1.215.32.325.747.504 1.2.504l7.812-.002a1.71 1.71 0 0 0 1.698-1.72c0-.474.38-.859.849-.859s.849.385.849.86c0 1.75-1.299 3.199-2.972 3.41v.027c0 1.896-1.523 3.438-3.396 3.438H3.396C1.524 22 0 20.458 0 18.562V6.873c0-1.896 1.524-3.438 3.396-3.438C3.398 1.54 4.921 0 6.792 0h7.812C16.476 0 18 1.542 18 3.438v7.392c0 .474-.38.86-.849.86a.855.855 0 0 1-.85-.86zm-11.91 6.728a3.437 3.437 0 0 1-.996-2.431V5.154c-.936 0-1.698.77-1.698 1.719v11.689a1.71 1.71 0 0 0 1.698 1.719h8.236a1.71 1.71 0 0 0 1.698-1.718l-6.537.001c-.908 0-1.76-.357-2.402-1.006z"/></g></g></svg>